# Blender 3.4.1
# www.blender.org
o Link9_Col
v 0.034619 -0.014699 -0.280873
v 0.205684 -0.014699 -0.280873
v 0.034619 -0.016705 -0.280873
v 0.205684 -0.016705 -0.280873
v 0.034619 -0.014699 -0.268402
v 0.205684 -0.014699 -0.268402
v 0.034619 -0.016705 -0.268402
v 0.205684 -0.016705 -0.268402
vn -0.0000 -0.0000 -1.0000
vn -0.0000 -1.0000 -0.0000
vn -0.0000 -0.0000 1.0000
vn -0.0000 1.0000 -0.0000
vn -1.0000 -0.0000 -0.0000
vn 1.0000 -0.0000 -0.0000
s 0
f 2//1 3//1 1//1
f 3//2 8//2 7//2
f 7//3 6//3 5//3
f 6//4 1//4 5//4
f 7//5 1//5 3//5
f 4//6 6//6 8//6
f 2//1 4//1 3//1
f 3//2 4//2 8//2
f 7//3 8//3 6//3
f 6//4 2//4 1//4
f 7//5 5//5 1//5
f 4//6 2//6 6//6
