# Blender 3.4.1
# www.blender.org
o Link2_Col
v -0.003086 -0.007510 -0.225039
v -0.003086 0.007610 -0.225039
v 0.018572 -0.007510 -0.253969
v 0.015421 -0.007510 -0.255446
v 0.015421 0.007610 -0.255446
v 0.018572 0.007610 -0.253969
v 0.011875 -0.007510 -0.255623
v 0.008951 -0.007510 -0.254385
v 0.008951 0.007610 -0.254385
v 0.011875 0.007610 -0.255623
v 0.021332 -0.007510 -0.247542
v 0.020508 -0.007510 -0.251127
v 0.020508 0.007610 -0.251127
v 0.021332 0.007610 -0.247542
v 0.006944 -0.007510 -0.252390
v 0.005607 -0.007510 -0.249844
v 0.005607 0.007610 -0.249844
v 0.006944 0.007610 -0.252390
v 0.005298 -0.007510 -0.247384
v 0.005538 -0.007510 -0.234949
v 0.005538 0.007610 -0.234949
v 0.005298 0.007610 -0.247384
v 0.016160 -0.007510 -0.089811
v 0.020774 -0.007510 -0.091839
v 0.024261 -0.007510 -0.095506
v 0.026056 -0.007510 -0.100215
v 0.026056 0.007610 -0.100215
v 0.024261 0.007610 -0.095506
v 0.020774 0.007610 -0.091839
v 0.016160 0.007610 -0.089811
v 0.000878 -0.007510 -0.099760
v 0.002943 -0.007510 -0.095147
v 0.006715 -0.007510 -0.091558
v 0.011425 -0.007510 -0.089725
v 0.011425 0.007610 -0.089725
v 0.006715 0.007610 -0.091558
v 0.002943 0.007610 -0.095147
v 0.000878 0.007610 -0.099760
v -0.003086 0.007610 -0.225039
v -0.003086 0.007610 -0.225039
v -0.003086 -0.007510 -0.225039
v -0.003086 -0.007510 -0.225039
v 0.018572 0.007610 -0.253969
v 0.018572 0.007610 -0.253969
v 0.015421 0.007610 -0.255446
v 0.015421 -0.007510 -0.255446
v 0.018572 -0.007510 -0.253969
v 0.018572 -0.007510 -0.253969
v 0.008951 -0.007510 -0.254385
v 0.011875 -0.007510 -0.255623
v 0.011875 0.007610 -0.255623
v 0.008951 0.007610 -0.254385
v 0.020508 -0.007510 -0.251127
v 0.021332 -0.007510 -0.247542
v 0.021332 0.007610 -0.247542
v 0.020508 0.007610 -0.251127
v 0.005607 -0.007510 -0.249844
v 0.006944 -0.007510 -0.252390
v 0.006944 0.007610 -0.252390
v 0.005607 0.007610 -0.249844
v 0.005298 0.007610 -0.247384
v 0.005538 0.007610 -0.234949
v 0.005538 0.007610 -0.234949
v 0.005538 -0.007510 -0.234949
v 0.005538 -0.007510 -0.234949
v 0.005298 -0.007510 -0.247384
v 0.020774 -0.007510 -0.091839
v 0.016160 -0.007510 -0.089811
v 0.016160 0.007610 -0.089811
v 0.020774 0.007610 -0.091839
v 0.024261 0.007610 -0.095506
v 0.026056 0.007610 -0.100215
v 0.026056 -0.007510 -0.100215
v 0.024261 -0.007510 -0.095506
v 0.006715 0.007610 -0.091558
v 0.011425 0.007610 -0.089725
v 0.011425 -0.007510 -0.089725
v 0.006715 -0.007510 -0.091558
v 0.002943 -0.007510 -0.095147
v 0.000878 -0.007510 -0.099760
v 0.000878 0.007610 -0.099760
v 0.002943 0.007610 -0.095147
vn 0.9917 -0.0000 -0.1287
vn 0.9862 -0.0000 0.1653
vn -0.8164 -0.0000 0.5774
vn -0.5362 -0.0000 0.8441
vn -0.0000 -1.0000 -0.0000
vn -0.8045 -0.0000 -0.5940
vn -0.5576 -0.0000 -0.8301
vn 0.4244 -0.0000 -0.9055
vn 0.2417 -0.0000 -0.9704
vn -0.1745 -0.0000 -0.9847
vn 0.9163 -0.0000 -0.4005
vn 0.8264 -0.0000 -0.5630
vn -0.9541 -0.0000 -0.2995
vn -0.7543 -0.0000 -0.6565
vn -0.9998 -0.0000 0.0193
vn -0.9986 -0.0000 -0.0527
vn -0.1757 -0.0000 0.9845
vn 0.2145 -0.0000 0.9767
vn -0.9995 -0.0000 0.0316
vn -0.9745 -0.0000 0.2244
vn -0.0000 1.0000 -0.0000
vn 0.5748 -0.0000 0.8183
vn 0.8461 -0.0000 0.5331
s 1
f 11//1 27//2 73//2
f 37//3 33//4 36//4
f 67//5 65//5 49//5
f 15//6 52//7 8//7
f 43//8 46//9 45//9
f 8//7 51//10 7//10
f 46//9 51//10 45//9
f 12//11 55//1 11//1
f 56//11 3//12 44//12
f 16//13 59//6 15//6
f 41//14 63//14 64//14
f 62//15 19//16 20//15
f 60//13 19//16 61//16
f 77//17 69//18 35//17
f 1//19 81//20 40//19
f 38//21 30//21 14//21
f 24//22 69//18 23//18
f 28//23 73//2 27//2
f 36//4 77//17 35//17
f 31//20 37//3 81//20
f 25//23 29//22 24//22
f 11//1 55//1 27//2
f 37//3 32//3 33//4
f 49//5 50//5 4//5
f 4//5 47//5 53//5
f 53//5 54//5 26//5
f 26//5 74//5 67//5
f 67//5 68//5 34//5
f 34//5 78//5 79//5
f 79//5 80//5 42//5
f 65//5 66//5 57//5
f 79//5 42//5 65//5
f 67//5 34//5 79//5
f 53//5 26//5 67//5
f 49//5 4//5 53//5
f 57//5 58//5 49//5
f 67//5 79//5 65//5
f 65//5 57//5 49//5
f 49//5 53//5 67//5
f 15//6 59//6 52//7
f 43//8 48//8 46//9
f 8//7 52//7 51//10
f 46//9 7//10 51//10
f 12//11 56//11 55//1
f 56//11 12//11 3//12
f 16//13 60//13 59//6
f 41//14 39//14 63//14
f 62//15 61//16 19//16
f 60//13 16//13 19//16
f 77//17 23//18 69//18
f 1//19 31//20 81//20
f 6//21 5//21 10//21
f 10//21 9//21 18//21
f 18//21 17//21 22//21
f 21//21 2//21 38//21
f 18//21 22//21 21//21
f 6//21 10//21 18//21
f 14//21 13//21 6//21
f 71//21 72//21 14//21
f 30//21 70//21 71//21
f 75//21 76//21 30//21
f 38//21 82//21 75//21
f 18//21 21//21 38//21
f 14//21 6//21 18//21
f 30//21 71//21 14//21
f 38//21 75//21 30//21
f 14//21 18//21 38//21
f 24//22 29//22 69//18
f 28//23 25//23 73//2
f 36//4 33//4 77//17
f 31//20 32//3 37//3
f 25//23 28//23 29//22
