# Blender 3.4.1
# www.blender.org
o Link8A_Col
v 0.197471 0.009639 -0.218091
v 0.193419 0.009639 -0.252087
v 0.197471 -0.009539 -0.218091
v 0.193419 -0.009539 -0.252087
v 0.251436 0.009639 -0.218091
v 0.251436 0.009639 -0.252087
v 0.251436 -0.009539 -0.218091
v 0.251436 -0.009539 -0.252087
v 0.186026 -0.009539 -0.236364
v 0.186026 0.009639 -0.236364
v 0.186026 0.009639 -0.252050
v 0.186026 -0.009539 -0.252050
v 0.178328 0.009639 -0.251986
v 0.178328 -0.009539 -0.251986
v 0.174733 -0.009539 -0.236364
v 0.171957 -0.009539 -0.239141
v 0.171957 0.009639 -0.239141
v 0.174733 0.009639 -0.236364
vn -0.0000 -1.0000 -0.0000
vn 1.0000 -0.0000 -0.0000
vn -0.0000 1.0000 -0.0000
vn -0.0000 -0.0000 1.0000
vn -0.0000 -0.0000 -1.0000
vn -0.0083 -0.0000 -1.0000
vn -0.0051 -0.0000 -1.0000
vn -0.8475 -0.0000 0.5308
vn -0.8958 -0.0000 -0.4444
vn -0.7071 -0.0000 0.7071
s 0
f 4//1 9//1 12//1
f 3//1 8//1 7//1
f 8//2 5//2 7//2
f 6//3 1//3 5//3
f 7//4 1//4 3//4
f 4//5 6//5 8//5
f 12//6 13//6 11//6
f 2//3 10//3 1//3
f 4//7 11//7 2//7
f 1//8 9//8 3//8
f 9//1 16//1 14//1
f 13//9 16//9 17//9
f 11//3 17//3 18//3
f 18//10 16//10 15//10
f 10//4 15//4 9//4
f 4//1 3//1 9//1
f 3//1 4//1 8//1
f 8//2 6//2 5//2
f 6//3 2//3 1//3
f 7//4 5//4 1//4
f 4//5 2//5 6//5
f 12//6 14//6 13//6
f 2//3 11//3 10//3
f 4//7 12//7 11//7
f 1//8 10//8 9//8
f 14//1 12//1 9//1
f 9//1 15//1 16//1
f 13//9 14//9 16//9
f 18//3 10//3 11//3
f 11//3 13//3 17//3
f 18//10 17//10 16//10
f 10//4 18//4 15//4
