# Blender 3.4.1
# www.blender.org
o Link1_Col
v 0.000000 0.036400 -0.087087
v 0.000000 0.036400 -0.072822
v 0.009421 0.035160 -0.087087
v 0.009421 0.035160 -0.072822
v 0.018200 0.031523 -0.087087
v 0.018200 0.031523 -0.072822
v 0.025739 0.025739 -0.087087
v 0.025739 0.025739 -0.072822
v 0.031523 0.018200 -0.087087
v 0.031523 0.018200 -0.072822
v 0.035160 0.009421 -0.087087
v 0.035160 0.009421 -0.072822
v 0.036400 0.000000 -0.087087
v 0.036400 0.000000 -0.072822
v 0.035160 -0.009421 -0.087087
v 0.035160 -0.009421 -0.072822
v 0.031523 -0.018200 -0.087087
v 0.031523 -0.018200 -0.072822
v 0.025739 -0.025739 -0.087087
v 0.025739 -0.025739 -0.072822
v 0.018200 -0.031523 -0.087087
v 0.018200 -0.031523 -0.072822
v 0.009421 -0.035160 -0.087087
v 0.009421 -0.035160 -0.072822
v 0.000000 -0.036400 -0.087087
v 0.000000 -0.036400 -0.072822
v -0.009421 -0.035160 -0.087087
v -0.009421 -0.035160 -0.072822
v -0.018200 -0.031523 -0.087087
v -0.018200 -0.031523 -0.072822
v -0.025739 -0.025739 -0.087087
v -0.025739 -0.025739 -0.072822
v -0.031523 -0.018200 -0.087087
v -0.031523 -0.018200 -0.072822
v -0.035160 -0.009421 -0.087087
v -0.035160 -0.009421 -0.072822
v -0.036400 0.000000 -0.087087
v -0.036400 0.000000 -0.072822
v -0.035160 0.009421 -0.087087
v -0.035160 0.009421 -0.072822
v -0.031523 0.018200 -0.087087
v -0.031523 0.018200 -0.072822
v -0.025739 0.025739 -0.087087
v -0.025739 0.025739 -0.072822
v -0.018200 0.031523 -0.087087
v -0.018200 0.031523 -0.072822
v -0.009421 0.035160 -0.087087
v -0.009421 0.035160 -0.072822
v 0.000000 0.036400 -0.087087
v 0.009421 0.035160 -0.087087
v 0.009421 0.035160 -0.072822
v 0.000000 0.036400 -0.072822
v 0.018200 0.031523 -0.087087
v 0.018200 0.031523 -0.072822
v 0.025739 0.025739 -0.087087
v 0.025739 0.025739 -0.072822
v 0.031523 0.018200 -0.087087
v 0.031523 0.018200 -0.072822
v 0.035160 0.009421 -0.087087
v 0.035160 0.009421 -0.072822
v 0.036400 0.000000 -0.087087
v 0.036400 0.000000 -0.072822
v 0.035160 -0.009421 -0.087087
v 0.035160 -0.009421 -0.072822
v 0.031523 -0.018200 -0.087087
v 0.031523 -0.018200 -0.072822
v 0.025739 -0.025739 -0.087087
v 0.025739 -0.025739 -0.072822
v 0.018200 -0.031523 -0.087087
v 0.018200 -0.031523 -0.072822
v 0.009421 -0.035160 -0.087087
v 0.009421 -0.035160 -0.072822
v 0.000000 -0.036400 -0.087087
v 0.000000 -0.036400 -0.072822
v -0.009421 -0.035160 -0.087087
v -0.009421 -0.035160 -0.072822
v -0.018200 -0.031523 -0.087087
v -0.018200 -0.031523 -0.072822
v -0.025739 -0.025739 -0.087087
v -0.025739 -0.025739 -0.072822
v -0.031523 -0.018200 -0.087087
v -0.031523 -0.018200 -0.072822
v -0.035160 -0.009421 -0.087087
v -0.035160 -0.009421 -0.072822
v -0.036400 0.000000 -0.087087
v -0.036400 0.000000 -0.072822
v -0.035160 0.009421 -0.087087
v -0.035160 0.009421 -0.072822
v -0.031523 0.018200 -0.087087
v -0.031523 0.018200 -0.072822
v -0.025739 0.025739 -0.087087
v -0.025739 0.025739 -0.072822
v -0.018200 0.031523 -0.087087
v -0.018200 0.031523 -0.072822
v -0.009421 0.035160 -0.087087
v -0.009421 0.035160 -0.072822
vn -0.0000 1.0000 -0.0000
vn 0.2588 0.9659 -0.0000
vn 0.5000 0.8660 -0.0000
vn 0.7071 0.7071 -0.0000
vn 0.8660 0.5000 -0.0000
vn 0.9659 0.2588 -0.0000
vn 1.0000 -0.0000 -0.0000
vn 0.9659 -0.2588 -0.0000
vn 0.8660 -0.5000 -0.0000
vn 0.7071 -0.7071 -0.0000
vn 0.5000 -0.8660 -0.0000
vn 0.2588 -0.9659 -0.0000
vn -0.0000 -1.0000 -0.0000
vn -0.2588 -0.9659 -0.0000
vn -0.5000 -0.8660 -0.0000
vn -0.7071 -0.7071 -0.0000
vn -0.8660 -0.5000 -0.0000
vn -0.9659 -0.2588 -0.0000
vn -1.0000 -0.0000 -0.0000
vn -0.9659 0.2588 -0.0000
vn -0.8660 0.5000 -0.0000
vn -0.7071 0.7071 -0.0000
vn -0.5000 0.8660 -0.0000
vn -0.0000 -0.0000 1.0000
vn -0.2588 0.9659 -0.0000
vn -0.0000 -0.0000 -1.0000
s 1
f 52//1 50//2 49//1
f 51//2 53//3 50//2
f 54//3 55//4 53//3
f 56//4 57//5 55//4
f 58//5 59//6 57//5
f 60//6 61//7 59//6
f 62//7 63//8 61//7
f 64//8 65//9 63//8
f 66//9 67//10 65//9
f 68//10 69//11 67//10
f 70//11 71//12 69//11
f 72//12 73//13 71//12
f 74//13 75//14 73//13
f 76//14 77//15 75//14
f 78//15 79//16 77//15
f 80//16 81//17 79//16
f 82//17 83//18 81//17
f 84//18 85//19 83//18
f 86//19 87//20 85//19
f 88//20 89//21 87//20
f 90//21 91//22 89//21
f 92//22 93//23 91//22
f 38//24 22//24 6//24
f 94//23 95//25 93//23
f 48//25 49//1 95//25
f 15//26 31//26 47//26
f 52//1 51//2 50//2
f 51//2 54//3 53//3
f 54//3 56//4 55//4
f 56//4 58//5 57//5
f 58//5 60//6 59//6
f 60//6 62//7 61//7
f 62//7 64//8 63//8
f 64//8 66//9 65//9
f 66//9 68//10 67//10
f 68//10 70//11 69//11
f 70//11 72//12 71//12
f 72//12 74//13 73//13
f 74//13 76//14 75//14
f 76//14 78//15 77//15
f 78//15 80//16 79//16
f 80//16 82//17 81//17
f 82//17 84//18 83//18
f 84//18 86//19 85//19
f 86//19 88//20 87//20
f 88//20 90//21 89//21
f 90//21 92//22 91//22
f 92//22 94//23 93//23
f 6//24 4//24 2//24
f 2//24 96//24 46//24
f 46//24 44//24 42//24
f 42//24 40//24 38//24
f 38//24 36//24 34//24
f 34//24 32//24 30//24
f 30//24 28//24 26//24
f 26//24 24//24 22//24
f 22//24 20//24 18//24
f 18//24 16//24 14//24
f 14//24 12//24 10//24
f 10//24 8//24 6//24
f 6//24 2//24 46//24
f 46//24 42//24 38//24
f 38//24 34//24 30//24
f 30//24 26//24 22//24
f 22//24 18//24 14//24
f 14//24 10//24 6//24
f 6//24 46//24 38//24
f 38//24 30//24 22//24
f 22//24 14//24 6//24
f 94//23 48//25 95//25
f 48//25 52//1 49//1
f 47//26 1//26 3//26
f 3//26 5//26 7//26
f 7//26 9//26 11//26
f 11//26 13//26 15//26
f 15//26 17//26 19//26
f 19//26 21//26 23//26
f 23//26 25//26 27//26
f 27//26 29//26 31//26
f 31//26 33//26 35//26
f 35//26 37//26 39//26
f 39//26 41//26 43//26
f 43//26 45//26 47//26
f 47//26 3//26 7//26
f 7//26 11//26 15//26
f 15//26 19//26 23//26
f 23//26 27//26 31//26
f 31//26 35//26 39//26
f 39//26 43//26 47//26
f 47//26 7//26 15//26
f 15//26 23//26 31//26
f 31//26 39//26 47//26
