# Blender 3.5.0
# www.blender.org
o plate_bottom_collision
v -0.147350 0.097426 0.106825
v -0.116906 0.118000 0.056111
v -0.147350 -0.097427 0.106825
v -0.116906 -0.118000 0.056111
v 0.151475 0.047966 0.106825
v 0.139406 0.086777 0.106825
v 0.149858 0.060955 0.106825
v 0.145440 0.075161 0.106825
v 0.139406 0.086777 0.056111
v 0.151475 0.047966 0.056111
v 0.145440 0.075161 0.056111
v 0.149858 0.060955 0.056111
v 0.139413 -0.086783 0.106825
v 0.151475 -0.047966 0.106825
v 0.145444 -0.075164 0.106825
v 0.149859 -0.060957 0.106825
v 0.151475 -0.047966 0.056111
v 0.139413 -0.086783 0.056111
v 0.149859 -0.060957 0.056111
v 0.145444 -0.075164 0.056111
v 0.135890 0.091883 0.106825
v 0.115837 0.110533 0.106825
v 0.126722 0.102131 0.106825
v 0.115837 0.110533 0.056111
v 0.135890 0.091883 0.056111
v 0.126722 0.102131 0.056111
v 0.115852 -0.110561 0.106825
v 0.135895 -0.091898 0.106825
v 0.126732 -0.102151 0.106825
v 0.135895 -0.091898 0.056111
v 0.115852 -0.110561 0.056111
v 0.126732 -0.102151 0.056111
v -0.012477 0.169847 0.106825
v -0.043486 0.161099 0.106825
v -0.028493 0.167285 0.106825
v -0.043625 0.161328 0.056111
v -0.012477 0.169847 0.056111
v -0.028533 0.167352 0.056111
v -0.043479 -0.161221 0.106825
v -0.012477 -0.169982 0.106825
v -0.028491 -0.167416 0.106825
v -0.012477 -0.169982 0.056111
v -0.043615 -0.161446 0.056111
v -0.028531 -0.167482 0.056111
v 0.029159 0.161378 0.106825
v -0.002018 0.169847 0.106825
v 0.014047 0.167366 0.106825
v -0.002018 0.169847 0.056111
v 0.029159 0.161378 0.056111
v 0.014047 0.167366 0.056111
v -0.002018 -0.169982 0.106825
v 0.029153 -0.161502 0.106825
v 0.014045 -0.167498 0.106825
v 0.029153 -0.161502 0.056111
v -0.002018 -0.169982 0.056111
v 0.014045 -0.167498 0.056111
v -0.116906 0.118000 0.056111
v -0.116906 0.118000 0.056111
v -0.147350 0.097426 0.106825
v -0.147350 0.097426 0.106825
v -0.147350 -0.097427 0.106825
v -0.147350 -0.097427 0.106825
v -0.116906 -0.118000 0.056111
v -0.116906 -0.118000 0.056111
v 0.149859 -0.060957 0.056111
v 0.151475 -0.047966 0.056111
v 0.151475 -0.047966 0.106825
v 0.149859 -0.060957 0.106825
v 0.145444 -0.075164 0.056111
v 0.145444 -0.075164 0.106825
v 0.139413 -0.086783 0.056111
v 0.139413 -0.086783 0.106825
v 0.149858 0.060955 0.106825
v 0.151475 0.047966 0.106825
v 0.151475 0.047966 0.056111
v 0.149858 0.060955 0.056111
v 0.145440 0.075161 0.106825
v 0.145440 0.075161 0.056111
v 0.139406 0.086777 0.106825
v 0.139406 0.086777 0.056111
v 0.126732 -0.102151 0.106825
v 0.115852 -0.110561 0.106825
v 0.115852 -0.110561 0.056111
v 0.126732 -0.102151 0.056111
v 0.135895 -0.091898 0.106825
v 0.135895 -0.091898 0.056111
v 0.126722 0.102131 0.056111
v 0.115837 0.110533 0.056111
v 0.115837 0.110533 0.106825
v 0.126722 0.102131 0.106825
v 0.135890 0.091883 0.056111
v 0.135890 0.091883 0.106825
v -0.028493 0.167285 0.106825
v -0.012477 0.169847 0.106825
v -0.012477 0.169847 0.056111
v -0.028533 0.167352 0.056111
v -0.043486 0.161099 0.106825
v -0.043625 0.161328 0.056111
v -0.028531 -0.167482 0.056111
v -0.012477 -0.169982 0.056111
v -0.012477 -0.169982 0.106825
v -0.028491 -0.167416 0.106825
v -0.043615 -0.161446 0.056111
v -0.043479 -0.161221 0.106825
v 0.014045 -0.167498 0.106825
v -0.002018 -0.169982 0.106825
v -0.002018 -0.169982 0.056111
v 0.014045 -0.167498 0.056111
v 0.029153 -0.161502 0.106825
v 0.029153 -0.161502 0.056111
v 0.014047 0.167366 0.056111
v -0.002018 0.169847 0.056111
v -0.002018 0.169847 0.106825
v 0.014047 0.167366 0.106825
v 0.029159 0.161378 0.056111
v 0.029159 0.161378 0.106825
vn -0.0000 -0.0000 -1.0000
vn 0.4385 0.8987 -0.0000
vn 0.5596 0.8287 -0.0000
vn -0.8574 -0.0000 -0.5147
vn 0.0765 0.9971 -0.0000
vn -0.0774 0.9970 0.0006
vn -0.0792 0.9969 -0.0000
vn -0.0776 -0.9970 0.0006
vn 0.0766 -0.9971 -0.0000
vn -0.0794 -0.9968 -0.0000
vn 0.8574 -0.5147 -0.0000
vn 0.7863 -0.6178 -0.0000
vn -0.4477 0.8941 0.0084
vn -0.5191 0.8543 0.0255
vn -0.5224 0.8521 0.0321
vn 0.9981 -0.0618 -0.0000
vn 0.9981 0.0619 -0.0000
vn 0.5602 -0.8284 -0.0000
vn 0.4390 -0.8985 -0.0000
vn 0.9775 -0.2109 -0.0000
vn 0.9249 -0.3802 -0.0000
vn 0.9775 0.2111 -0.0000
vn 0.9248 0.3805 -0.0000
vn 0.8572 0.5150 -0.0000
vn -0.4484 -0.8938 0.0082
vn -0.5199 -0.8538 0.0251
vn -0.4420 -0.8970 0.0052
vn 0.6815 -0.7319 -0.0000
vn 0.6810 0.7323 -0.0000
vn 0.7860 0.6182 -0.0000
vn -0.2711 0.9626 0.0009
vn -0.2649 0.9643 0.0030
vn -0.2715 -0.9624 0.0009
vn -0.2655 -0.9641 0.0029
vn 0.2625 -0.9649 -0.0000
vn 0.2622 0.9650 -0.0000
vn -0.0000 -0.0000 1.0000
vn -0.4412 0.8974 0.0053
vn -0.5231 -0.8517 0.0315
vt 0.125000 0.693797
vt 0.625000 0.056203
vt 0.125000 0.556203
vt 0.625000 0.193797
vt 0.375000 0.654732
vt 0.367189 0.682206
vt 0.373697 0.662852
vt 0.370837 0.672913
vt 0.625000 0.690018
vt 0.625000 0.654732
vt 0.625000 0.676533
vt 0.625000 0.662784
vt 0.367194 0.567799
vt 0.375000 0.595268
vt 0.370839 0.577089
vt 0.373697 0.587148
vt 0.625000 0.595268
vt 0.625000 0.559993
vt 0.625000 0.587216
vt 0.625000 0.573472
vt 0.364913 0.686366
vt 0.351934 0.701574
vt 0.358727 0.694842
vt 0.625000 0.724639
vt 0.625000 0.696453
vt 0.625000 0.711014
vt 0.351944 0.548433
vt 0.364916 0.563635
vt 0.358733 0.555162
vt 0.625000 0.553551
vt 0.648056 0.548433
vt 0.625000 0.538996
vt 0.230760 0.750000
vt 0.187829 0.743211
vt 0.199412 0.748078
vt 0.625000 0.009235
vt 0.769240 0.750000
vt 0.625000 0.928539
vt 0.625000 0.000000
vt 0.187833 0.506786
vt 0.230760 0.500000
vt 0.199417 0.501922
vt 0.625000 0.355760
vt 0.625000 0.300499
vt 0.625000 0.321461
vt 0.295834 0.743085
vt 0.252191 0.750000
vt 0.283714 0.748118
vt 0.625000 0.872809
vt 0.625000 0.822251
vt 0.625000 0.838511
vt 0.252191 0.500000
vt 0.295830 0.506912
vt 0.283710 0.501883
vt 0.625000 0.427742
vt 0.747809 0.500000
vt 0.625000 0.411489
vt 0.625000 0.056203
vt 0.875000 0.693797
vt 0.375000 0.056203
vt 0.375000 0.056203
vt 0.375000 0.193797
vt 0.375000 0.193797
vt 0.625000 0.193797
vt 0.875000 0.556203
vt 0.626373 0.587151
vt 0.625000 0.595268
vt 0.375000 0.595268
vt 0.375000 0.587216
vt 0.629232 0.577093
vt 0.375000 0.573472
vt 0.632806 0.567799
vt 0.375000 0.559993
vt 0.375000 0.662784
vt 0.375000 0.654732
vt 0.625000 0.654732
vt 0.626374 0.662849
vt 0.375000 0.676533
vt 0.629234 0.672909
vt 0.375000 0.690018
vt 0.632811 0.682206
vt 0.375000 0.538996
vt 0.375000 0.525377
vt 0.625000 0.525377
vt 0.641335 0.555169
vt 0.375000 0.553551
vt 0.635084 0.563635
vt 0.641342 0.694835
vt 0.648066 0.701574
vt 0.375000 0.724639
vt 0.375000 0.711014
vt 0.635087 0.686366
vt 0.375000 0.696453
vt 0.375000 0.000000
vt 0.375000 0.928539
vt 0.375000 0.894240
vt 0.625000 0.894240
vt 0.801010 0.747898
vt 0.375000 0.006789
vt 0.815281 0.740765
vt 0.801004 0.502103
vt 0.769240 0.500000
vt 0.375000 0.355760
vt 0.375000 0.321461
vt 0.815273 0.509229
vt 0.375000 0.306047
vt 0.375000 0.411489
vt 0.375000 0.377191
vt 0.625000 0.377191
vt 0.716438 0.501925
vt 0.375000 0.427742
vt 0.704170 0.506912
vt 0.716434 0.748075
vt 0.747809 0.750000
vt 0.375000 0.872809
vt 0.375000 0.838511
vt 0.704166 0.743085
vt 0.375000 0.822251
s 1
f 110/112/1 98/100/1 91/92/1
f 116/118/2 24/24/3 49/50/2
f 57/58/4 61/62/4 59/60/4
f 113/115/5 95/97/6 94/96/7
f 42/43/8 106/108/9 101/103/10
f 18/18/11 85/86/12 30/30/12
f 97/99/13 2/2/14 60/61/15
f 17/17/16 74/75/17 67/68/16
f 82/83/18 54/55/19 83/84/18
f 17/17/16 68/69/20 19/19/20
f 19/19/20 70/71/21 20/20/21
f 70/71/21 18/18/11 20/20/21
f 75/76/17 73/74/22 74/75/17
f 12/12/22 77/78/23 73/74/22
f 11/11/23 79/80/24 77/78/23
f 104/106/25 4/4/26 43/44/27
f 83/84/18 81/82/28 82/83/18
f 32/32/28 85/86/12 81/82/28
f 89/90/3 26/26/29 24/24/3
f 26/26/29 92/93/30 25/25/30
f 9/9/24 92/93/30 79/80/24
f 95/97/6 93/95/31 94/96/7
f 38/39/32 97/99/13 93/94/31
f 42/43/8 102/104/33 44/45/34
f 44/45/34 104/106/25 43/44/27
f 107/109/9 105/107/35 106/108/9
f 56/57/35 109/111/19 105/107/35
f 48/49/5 114/116/36 50/51/36
f 114/116/36 49/50/2 50/51/36
f 27/27/37 7/7/37 46/47/37
f 10/10/1 66/67/1 65/66/1
f 65/66/1 69/70/1 71/72/1
f 71/72/1 86/87/1 84/85/1
f 84/85/1 31/31/1 110/112/1
f 110/112/1 108/110/1 55/56/1
f 55/56/1 100/102/1 99/101/1
f 99/101/1 103/105/1 64/65/1
f 64/65/1 58/59/1 98/100/1
f 98/100/1 96/98/1 37/37/1
f 37/37/1 112/114/1 111/113/1
f 111/113/1 115/117/1 88/89/1
f 88/89/1 87/88/1 91/92/1
f 91/92/1 80/81/1 78/79/1
f 78/79/1 76/77/1 10/10/1
f 10/10/1 65/66/1 71/72/1
f 71/72/1 84/85/1 110/112/1
f 110/112/1 55/56/1 99/101/1
f 99/101/1 64/65/1 98/100/1
f 98/100/1 37/37/1 111/113/1
f 111/113/1 88/89/1 91/92/1
f 91/92/1 78/79/1 10/10/1
f 10/10/1 71/72/1 110/112/1
f 110/112/1 99/101/1 98/100/1
f 98/100/1 111/113/1 91/92/1
f 91/92/1 10/10/1 110/112/1
f 116/118/2 89/90/3 24/24/3
f 57/58/4 63/64/4 61/62/4
f 113/115/5 48/49/5 95/97/6
f 42/43/8 107/109/9 106/108/9
f 18/18/11 72/73/11 85/86/12
f 97/99/13 36/36/38 2/2/14
f 17/17/16 75/76/17 74/75/17
f 82/83/18 109/111/19 54/55/19
f 17/17/16 67/68/16 68/69/20
f 19/19/20 68/69/20 70/71/21
f 70/71/21 72/73/11 18/18/11
f 75/76/17 12/12/22 73/74/22
f 12/12/22 11/11/23 77/78/23
f 11/11/23 9/9/24 79/80/24
f 104/106/25 62/63/39 4/4/26
f 83/84/18 32/32/28 81/82/28
f 32/32/28 30/30/12 85/86/12
f 89/90/3 90/91/29 26/26/29
f 26/26/29 90/91/29 92/93/30
f 9/9/24 25/25/30 92/93/30
f 95/97/6 38/38/32 93/95/31
f 38/39/32 36/36/38 97/99/13
f 42/43/8 101/103/10 102/104/33
f 44/45/34 102/104/33 104/106/25
f 107/109/9 56/57/35 105/107/35
f 56/57/35 54/55/19 109/111/19
f 48/49/5 113/115/5 114/116/36
f 114/116/36 116/118/2 49/50/2
f 1/1/37 3/3/37 39/40/37
f 39/40/37 41/42/37 40/41/37
f 40/41/37 51/52/37 53/54/37
f 53/54/37 52/53/37 27/27/37
f 27/27/37 29/29/37 28/28/37
f 28/28/37 13/13/37 15/15/37
f 15/15/37 16/16/37 14/14/37
f 14/14/37 5/5/37 7/7/37
f 7/7/37 8/8/37 6/6/37
f 6/6/37 21/21/37 23/23/37
f 23/23/37 22/22/37 45/46/37
f 45/46/37 47/48/37 46/47/37
f 46/47/37 33/33/37 35/35/37
f 35/35/37 34/34/37 1/1/37
f 1/1/37 39/40/37 40/41/37
f 40/41/37 53/54/37 27/27/37
f 27/27/37 28/28/37 15/15/37
f 15/15/37 14/14/37 7/7/37
f 7/7/37 6/6/37 23/23/37
f 23/23/37 45/46/37 46/47/37
f 46/47/37 35/35/37 1/1/37
f 1/1/37 40/41/37 27/27/37
f 27/27/37 15/15/37 7/7/37
f 7/7/37 23/23/37 46/47/37
f 46/47/37 1/1/37 27/27/37
