# Blender 3.5.0
# www.blender.org
o plate_middle_collision
v -0.165538 -0.048101 0.006041
v -0.153469 -0.086912 0.006041
v -0.163921 -0.061090 0.006041
v -0.159503 -0.075296 0.006041
v -0.153469 -0.086912 0.000000
v -0.165538 -0.048101 0.000000
v -0.159503 -0.075296 0.000000
v -0.163921 -0.061090 0.000000
v -0.153477 0.086648 0.006041
v -0.165538 0.047832 0.006041
v -0.159507 0.075030 0.006041
v -0.163922 0.060822 0.006041
v -0.165538 0.047832 -0.000000
v -0.153477 0.086648 -0.000000
v -0.163922 0.060822 -0.000000
v -0.159507 0.075030 -0.000000
v -0.149953 -0.092018 0.006041
v -0.129900 -0.110668 0.006041
v -0.140785 -0.102266 0.006041
v -0.129900 -0.110668 0.000000
v -0.149953 -0.092018 0.000000
v -0.140785 -0.102266 0.000000
v -0.129915 0.110426 0.006041
v -0.149958 0.091763 0.006041
v -0.140795 0.102016 0.006041
v -0.149958 0.091763 -0.000000
v -0.129915 0.110426 -0.000000
v -0.140795 0.102016 -0.000000
v -0.001586 -0.169982 0.006041
v 0.029423 -0.161233 0.006041
v 0.014430 -0.167419 0.006041
v 0.029561 -0.161462 0.000000
v -0.001586 -0.169982 0.000000
v 0.014470 -0.167486 0.000000
v 0.029416 0.161087 0.006041
v -0.001586 0.169847 0.006041
v 0.014428 0.167281 0.006041
v -0.001586 0.169847 -0.000000
v 0.029552 0.161312 -0.000000
v 0.014467 0.167347 -0.000000
v -0.043222 -0.161512 0.006041
v -0.012045 -0.169982 0.006041
v -0.028110 -0.167501 0.006041
v -0.012045 -0.169982 0.000000
v -0.043222 -0.161512 0.000000
v -0.028110 -0.167501 0.000000
v -0.012046 0.169847 0.006041
v -0.043216 0.161367 0.006041
v -0.028109 0.167363 0.006041
v -0.043216 0.161367 -0.000000
v -0.012046 0.169847 -0.000000
v -0.028109 0.167363 -0.000000
v 0.115248 -0.110501 0.006041
v 0.122822 -0.097226 0.006041
v 0.120604 -0.104758 0.006041
v 0.122822 -0.097226 0.000000
v 0.115260 -0.110520 0.000000
v 0.120607 -0.104764 0.000000
v 0.122822 0.096957 0.006041
v 0.115253 0.110239 0.006041
v 0.120605 0.104491 0.006041
v 0.115264 0.110257 -0.000000
v 0.122822 0.096957 -0.000000
v 0.120608 0.104497 -0.000000
v -0.163922 0.060822 -0.000000
v -0.165538 0.047832 -0.000000
v -0.165538 0.047832 0.006041
v -0.163922 0.060822 0.006041
v -0.159507 0.075030 -0.000000
v -0.159507 0.075030 0.006041
v -0.153477 0.086648 -0.000000
v -0.153477 0.086648 0.006041
v -0.163921 -0.061090 0.006041
v -0.165538 -0.048101 0.006041
v -0.165538 -0.048101 0.000000
v -0.163921 -0.061090 0.000000
v -0.159503 -0.075296 0.006041
v -0.159503 -0.075296 0.000000
v -0.153469 -0.086912 0.006041
v -0.153469 -0.086912 0.000000
v -0.140795 0.102016 0.006041
v -0.129915 0.110426 0.006041
v -0.129915 0.110426 -0.000000
v -0.140795 0.102016 -0.000000
v -0.149958 0.091763 0.006041
v -0.149958 0.091763 -0.000000
v -0.140785 -0.102266 0.000000
v -0.129900 -0.110668 0.000000
v -0.129900 -0.110668 0.006041
v -0.140785 -0.102266 0.006041
v -0.149953 -0.092018 0.000000
v -0.149953 -0.092018 0.006041
v 0.014430 -0.167419 0.006041
v -0.001586 -0.169982 0.006041
v -0.001586 -0.169982 0.000000
v 0.014470 -0.167486 0.000000
v 0.029423 -0.161233 0.006041
v 0.029561 -0.161462 0.000000
v 0.014467 0.167347 -0.000000
v -0.001586 0.169847 -0.000000
v -0.001586 0.169847 0.006041
v 0.014428 0.167281 0.006041
v 0.029552 0.161312 -0.000000
v 0.029416 0.161087 0.006041
v -0.028109 0.167363 0.006041
v -0.012046 0.169847 0.006041
v -0.012046 0.169847 -0.000000
v -0.028109 0.167363 -0.000000
v -0.043216 0.161367 0.006041
v -0.043216 0.161367 -0.000000
v -0.028110 -0.167501 0.000000
v -0.012045 -0.169982 0.000000
v -0.012045 -0.169982 0.006041
v -0.028110 -0.167501 0.006041
v -0.043222 -0.161512 0.000000
v -0.043222 -0.161512 0.006041
v 0.120607 -0.104764 0.000000
v 0.122822 -0.097226 0.000000
v 0.122822 -0.097226 0.006041
v 0.120604 -0.104758 0.006041
v 0.115260 -0.110520 0.000000
v 0.115248 -0.110501 0.006041
v 0.120605 0.104491 0.006041
v 0.122822 0.096957 0.006041
v 0.122822 0.096957 -0.000000
v 0.120608 0.104497 -0.000000
v 0.115253 0.110239 0.006041
v 0.115264 0.110257 -0.000000
vn 0.4417 0.8962 0.0425
vn 0.6285 0.7778 0.0038
vn 0.6288 0.7776 0.0035
vn -0.4385 -0.8987 -0.0000
vn -0.5596 -0.8287 -0.0000
vn -0.0000 -0.0000 1.0000
vn -0.0765 -0.9971 -0.0000
vn 0.0792 -0.9969 -0.0000
vn 0.0789 0.9969 0.0013
vn -0.0766 0.9971 -0.0000
vn 0.0794 0.9968 -0.0000
vn -0.8574 0.5147 -0.0000
vn -0.7863 0.6178 -0.0000
vn 0.9898 -0.1427 -0.0000
vn 0.9898 0.1425 0.0002
vn 0.9898 0.1426 -0.0000
vn -0.9981 0.0618 -0.0000
vn -0.9981 -0.0619 -0.0000
vn -0.5602 0.8284 -0.0000
vn -0.4390 0.8985 -0.0000
vn -0.9775 0.2109 -0.0000
vn -0.9249 0.3802 -0.0000
vn -0.9775 -0.2111 -0.0000
vn -0.9248 -0.3805 -0.0000
vn -0.8572 -0.5150 -0.0000
vn -0.6815 0.7319 -0.0000
vn -0.6810 -0.7323 -0.0000
vn -0.7860 -0.6182 -0.0000
vn 0.0787 -0.9969 0.0014
vn 0.2696 -0.9629 0.0111
vn 0.2683 -0.9632 0.0160
vn 0.4417 -0.8962 0.0406
vn 0.2700 0.9628 0.0109
vn 0.2688 0.9631 0.0157
vn 0.4425 0.8959 0.0398
vn -0.2625 0.9649 -0.0000
vn -0.2622 -0.9650 -0.0000
vn -0.0000 -0.0000 -1.0000
vn 0.9898 -0.1426 0.0002
vn 0.8687 -0.4953 0.0007
vn 0.8689 -0.4950 0.0014
vn 0.6279 -0.7783 0.0038
vn 0.6282 -0.7781 0.0036
vn 0.8689 0.4949 0.0007
vn 0.8691 0.4946 0.0014
vn 0.4409 -0.8965 0.0433
vt 0.375000 0.654732
vt 0.375000 0.690018
vt 0.375000 0.662784
vt 0.375000 0.676533
vt 0.632811 0.682206
vt 0.625000 0.654732
vt 0.629234 0.672909
vt 0.626374 0.662849
vt 0.375000 0.559993
vt 0.375000 0.595268
vt 0.375000 0.573472
vt 0.375000 0.587216
vt 0.625000 0.595268
vt 0.632806 0.567799
vt 0.626373 0.587151
vt 0.629232 0.577093
vt 0.375000 0.696453
vt 0.351934 0.701574
vt 0.375000 0.711014
vt 0.648066 0.701574
vt 0.635087 0.686366
vt 0.641342 0.694835
vt 0.375000 0.525377
vt 0.375000 0.553551
vt 0.375000 0.538996
vt 0.635084 0.563635
vt 0.648056 0.548433
vt 0.641335 0.555169
vt 0.375000 0.894240
vt 0.375000 0.006789
vt 0.375000 0.000000
vt 0.375000 0.928539
vt 0.815281 0.740765
vt 0.769240 0.750000
vt 0.801010 0.747898
vt 0.375000 0.306047
vt 0.230760 0.500000
vt 0.375000 0.321461
vt 0.769240 0.500000
vt 0.815273 0.509229
vt 0.801004 0.502103
vt 0.375000 0.822251
vt 0.252191 0.750000
vt 0.375000 0.838511
vt 0.747809 0.750000
vt 0.704166 0.743085
vt 0.716434 0.748075
vt 0.375000 0.377191
vt 0.375000 0.427742
vt 0.375000 0.411489
vt 0.704170 0.506912
vt 0.747809 0.500000
vt 0.716438 0.501925
vt 0.375000 0.052196
vt 0.125000 0.688081
vt 0.375000 0.056203
vt 0.625000 0.061920
vt 0.625000 0.052394
vt 0.625000 0.056203
vt 0.375000 0.188080
vt 0.375000 0.202894
vt 0.375000 0.193797
vt 0.625000 0.202444
vt 0.875000 0.561920
vt 0.625000 0.193797
vt 0.625000 0.587216
vt 0.625000 0.595268
vt 0.375000 0.595268
vt 0.373697 0.587148
vt 0.625000 0.573472
vt 0.370839 0.577089
vt 0.625000 0.559993
vt 0.367194 0.567799
vt 0.373697 0.662852
vt 0.375000 0.654732
vt 0.625000 0.654732
vt 0.625000 0.662784
vt 0.370837 0.672913
vt 0.625000 0.676533
vt 0.367189 0.682206
vt 0.625000 0.690018
vt 0.358733 0.555162
vt 0.351944 0.548433
vt 0.625000 0.525377
vt 0.625000 0.538996
vt 0.364916 0.563635
vt 0.625000 0.553551
vt 0.625000 0.711014
vt 0.625000 0.724639
vt 0.375000 0.724639
vt 0.358727 0.694842
vt 0.625000 0.696453
vt 0.364913 0.686366
vt 0.199412 0.748078
vt 0.230760 0.750000
vt 0.625000 0.894240
vt 0.625000 0.928539
vt 0.625000 0.000000
vt 0.187829 0.743211
vt 0.625000 0.009235
vt 0.625000 0.321461
vt 0.625000 0.355760
vt 0.375000 0.355760
vt 0.199417 0.501922
vt 0.625000 0.300499
vt 0.187833 0.506786
vt 0.283710 0.501883
vt 0.252191 0.500000
vt 0.625000 0.377191
vt 0.625000 0.411489
vt 0.295830 0.506912
vt 0.625000 0.427742
vt 0.625000 0.838511
vt 0.625000 0.872809
vt 0.375000 0.872809
vt 0.283714 0.748118
vt 0.625000 0.822251
vt 0.295834 0.743085
vt 0.873286 0.693112
vt 0.875000 0.688080
vt 0.375000 0.061920
vt 0.126753 0.693138
vt 0.870157 0.697606
vt 0.130095 0.697804
vt 0.126753 0.556863
vt 0.125000 0.561920
vt 0.625000 0.188080
vt 0.873286 0.556888
vt 0.130092 0.552198
vt 0.870160 0.552396
s 1
f 103/105/1 60/61/2 62/63/3
f 41/42/4 88/89/5 115/117/4
f 10/10/6 116/118/6 54/55/6
f 112/114/7 29/29/8 113/115/7
f 100/102/9 47/48/10 101/103/11
f 9/9/12 86/87/13 71/72/12
f 119/121/14 125/127/15 59/60/16
f 66/67/17 1/1/18 67/68/17
f 23/23/19 110/112/20 83/84/19
f 67/68/17 65/66/21 66/67/17
f 12/12/21 69/70/22 65/66/21
f 11/11/22 71/72/12 69/70/22
f 75/76/18 3/3/23 1/1/18
f 76/77/23 4/4/24 3/3/23
f 78/79/24 2/2/25 4/4/24
f 83/84/19 25/25/26 23/23/19
f 84/85/26 24/24/13 25/25/26
f 89/90/5 87/88/27 88/89/5
f 19/19/27 91/92/28 87/88/27
f 80/81/25 17/17/28 2/2/25
f 95/96/29 31/32/30 29/29/8
f 96/98/31 30/30/32 31/31/30
f 100/102/9 37/38/33 99/101/34
f 99/101/34 35/36/35 103/105/1
f 107/109/10 49/50/36 47/48/10
f 108/110/36 48/49/20 49/50/36
f 113/115/7 111/113/37 112/114/7
f 43/44/37 115/117/4 111/113/37
f 63/64/38 46/47/38 6/6/38
f 56/57/39 55/56/40 58/59/41
f 58/59/41 53/54/42 57/58/43
f 125/127/15 61/62/44 59/60/16
f 64/65/45 60/61/2 61/62/44
f 98/100/46 53/54/42 30/30/32
f 103/105/1 35/36/35 60/61/2
f 41/42/4 89/90/5 88/89/5
f 54/55/6 124/126/6 123/125/6
f 123/125/6 127/129/6 104/106/6
f 104/106/6 102/104/6 36/37/6
f 36/37/6 106/108/6 105/107/6
f 105/107/6 109/111/6 82/83/6
f 82/83/6 81/82/6 85/86/6
f 85/86/6 72/73/6 70/71/6
f 70/71/6 68/69/6 10/10/6
f 10/10/6 74/75/6 73/74/6
f 73/74/6 77/78/6 79/80/6
f 79/80/6 92/93/6 90/91/6
f 90/91/6 18/18/6 116/118/6
f 116/118/6 114/116/6 42/43/6
f 42/43/6 94/95/6 93/94/6
f 93/94/6 97/99/6 122/124/6
f 122/124/6 120/122/6 54/55/6
f 54/55/6 123/125/6 104/106/6
f 104/106/6 36/37/6 105/107/6
f 105/107/6 82/83/6 85/86/6
f 85/86/6 70/71/6 10/10/6
f 10/10/6 73/74/6 79/80/6
f 79/80/6 90/91/6 116/118/6
f 116/118/6 42/43/6 93/94/6
f 93/94/6 122/124/6 54/55/6
f 54/55/6 104/106/6 105/107/6
f 105/107/6 85/86/6 10/10/6
f 10/10/6 79/80/6 116/118/6
f 116/118/6 93/94/6 54/55/6
f 54/55/6 105/107/6 10/10/6
f 112/114/7 95/96/29 29/29/8
f 100/102/9 107/109/10 47/48/10
f 9/9/12 24/24/13 86/87/13
f 119/121/14 56/57/39 125/127/15
f 66/67/17 75/76/18 1/1/18
f 23/23/19 48/49/20 110/112/20
f 67/68/17 12/12/21 65/66/21
f 12/12/21 11/11/22 69/70/22
f 11/11/22 9/9/12 71/72/12
f 75/76/18 76/77/23 3/3/23
f 76/77/23 78/79/24 4/4/24
f 78/79/24 80/81/25 2/2/25
f 83/84/19 84/85/26 25/25/26
f 84/85/26 86/87/13 24/24/13
f 89/90/5 19/19/27 87/88/27
f 19/19/27 17/17/28 91/92/28
f 80/81/25 91/92/28 17/17/28
f 95/96/29 96/97/31 31/32/30
f 96/98/31 98/100/46 30/30/32
f 100/102/9 101/103/11 37/38/33
f 99/101/34 37/38/33 35/36/35
f 107/109/10 108/110/36 49/50/36
f 108/110/36 110/112/20 48/49/20
f 113/115/7 43/44/37 111/113/37
f 43/44/37 41/42/4 115/117/4
f 6/6/38 13/13/38 15/15/38
f 15/15/38 16/16/38 14/14/38
f 14/14/38 26/26/38 28/28/38
f 28/28/38 27/27/38 50/51/38
f 50/51/38 52/53/38 51/52/38
f 51/52/38 38/39/38 40/41/38
f 40/41/38 39/40/38 128/130/38
f 128/130/38 126/128/38 63/64/38
f 63/64/38 118/120/38 117/119/38
f 117/119/38 121/123/38 32/33/38
f 32/33/38 34/35/38 33/34/38
f 33/34/38 44/45/38 46/47/38
f 46/47/38 45/46/38 20/20/38
f 20/20/38 22/22/38 21/21/38
f 21/21/38 5/5/38 7/7/38
f 7/7/38 8/8/38 6/6/38
f 6/6/38 15/15/38 14/14/38
f 14/14/38 28/28/38 50/51/38
f 50/51/38 51/52/38 40/41/38
f 40/41/38 128/130/38 63/64/38
f 63/64/38 117/119/38 32/33/38
f 32/33/38 33/34/38 46/47/38
f 46/47/38 20/20/38 21/21/38
f 21/21/38 7/7/38 6/6/38
f 6/6/38 14/14/38 50/51/38
f 50/51/38 40/41/38 63/64/38
f 63/64/38 32/33/38 46/47/38
f 46/47/38 21/21/38 6/6/38
f 6/6/38 50/51/38 63/64/38
f 56/57/39 119/121/14 55/56/40
f 58/59/41 55/56/40 53/54/42
f 125/127/15 64/65/45 61/62/44
f 64/65/45 62/63/3 60/61/2
f 98/100/46 57/58/43 53/54/42
